<?xml version="1.0" encoding="utf-8"?>
<!-- Generator: Adobe Illustrator 27.6.1, SVG Export Plug-In . SVG Version: 6.00 Build 0)  -->
<svg version="1.1" id="Layer_1" xmlns="http://www.w3.org/2000/svg" xmlns:xlink="http://www.w3.org/1999/xlink" x="0px" y="0px"
	 viewBox="0 0 1186.4 927.2" style="enable-background:new 0 0 1186.4 927.2;" xml:space="preserve" fill="white">
<g>
	<path class="st0" d="M297.6,481.1c-1.3,18.7,16.1,33.2,34.4,29.3l248.7-53.9c0.9-14.3,12.2-26.7,28.1-27.4
		c11.9-0.5,23.3,6.9,27.8,17.8c7.1,17.3-3.3,36-20.7,39.8c-13,2.8-25.8-3.6-31.8-14.9l-57,12.3l-228.2,49.4l-57.2,12.4
		c-4.3,0.9-7,5.1-6,9.4c0.9,4.3,5.1,7,9.4,6l56.2-12.2c2,11.3,4.6,22.3,7.8,33c4.3,14.3,18.7,23.1,33.3,20l53.3-11.5
		c0.9-14.3,12.2-26.7,28.1-27.4c11.9-0.5,23.3,6.9,27.8,17.8c7.1,17.3-3.3,36-20.7,39.8c-13,2.8-25.8-3.6-31.8-14.9l-12.6,2.7l0-0.1
		L298.2,628c-4.3,0.9-7,5.1-6,9.4c0.9,4.3,5.1,7,9.4,6l29.9-6.5c9.7,18.2,23.7,41,42.1,55.9C515.8,671,622,590.7,684.1,527.9
		c150.5-152.4,30.6-344.5-146.2-314c-4.9,0.9-9.9,1.8-14.9,3c-4.4,1-8.7,2.1-13,3.3c-35.1,9.7-21.4,62.6,14.2,54.9l1.8-0.4
		c0.9-14.3,12.2-26.7,28.1-27.4c11.9-0.5,23.3,6.9,27.8,17.8c7.1,17.3-3.3,36-20.7,39.8c-13,2.8-25.8-3.6-31.8-14.9L452,306.7
		L354.1,328l-105.8,22.9c-4.3,0.9-7,5.1-6,9.4c0.9,4.3,5.1,7,9.4,6l89.7-19.4c-2.1,3.4-4.3,6.8-6.3,10.3
		c-12.2,21.4,6.6,47.1,30.7,41.9l37.1-8c0.9-14.3,12.2-26.7,28.1-27.4c11.9-0.5,23.3,6.9,27.8,17.8c7.1,17.3-3.3,36-20.7,39.8
		c-13,2.8-25.8-3.6-31.8-14.9l-5.9,1.3l-94.1,20.4l-145.5,31.5c-4.3,0.9-7,5.1-6,9.4s5.1,7,9.4,6l138.6-30
		C300.4,456.9,298.5,468.9,297.6,481.1z"/>
	<path class="st0" d="M999.1,624.9c-0.9-4.3-5.1-7-9.4-6L833,652.8c2.3-3.7,4.6-7.4,6.7-11.1c9.4-16.8-5.3-36.9-24.2-32.8
		c-0.9,14.3-12.2,26.7-28.1,27.4c-11.9,0.5-23.3-6.9-27.8-17.8c-7.1-17.3,3.3-36,20.7-39.8c13-2.8,25.8,3.6,31.8,14.9l10.6-2.3
		l42.2-9.1l62.9-13.6c4.3-0.9,7-5.1,6-9.4c-0.9-4.3-5.1-7-9.4-6l-55.1,11.9c9.3-40.4,10.1-83.4,0.8-126.5
		c26.5-65.7,22.4-128.1-18.8-173.6c-35.1-38.8-92-59.3-159.6-62.6c46.5,6.5,84.8,23.4,109.9,51.1c80.3,88.6,14.2,253.8-171.3,370.1
		c-159.8,100.1-360.9,131.5-459.7,81.5c56.1,52.9,157.1,66.8,268.7,44.6c60.7,35.8,134.4,49.8,208.7,33.7
		c29.4-6.4,56.8-17,81.6-31.1c22.2-12.6,9.2-46.7-15.7-41.3L667.3,721c-0.9,14.3-12.2,26.7-28.1,27.4c-11.9,0.5-23.3-6.9-27.8-17.8
		c-7.1-17.3,3.3-36,20.7-39.8c13-2.8,25.8,3.6,31.8,14.9l119-25.8l37.4-8.1l172.7-37.4C997.3,633.4,1000,629.2,999.1,624.9z"/>
	<path class="st0" d="M613.1,474.2c8.8-1.9,14.4-10.6,12.5-19.4c-1.9-8.8-10.6-14.4-19.4-12.5c-8.8,1.9-14.4,10.6-12.5,19.4
		C595.7,470.6,604.3,476.2,613.1,474.2z"/>
	<path class="st0" d="M428,608.5c8.8-1.9,14.4-10.6,12.5-19.4c-1.9-8.8-10.6-14.4-19.4-12.5c-8.8,1.9-14.4,10.6-12.5,19.4
		C410.5,604.8,419.2,610.4,428,608.5z"/>
	<path class="st0" d="M558.4,292.3c8.8-1.9,14.4-10.6,12.5-19.4c-1.9-8.8-10.6-14.4-19.4-12.5c-8.8,1.9-14.4,10.6-12.5,19.4
		C540.9,288.6,549.6,294.2,558.4,292.3z"/>
	<path class="st0" d="M435.3,408.8c8.8-1.9,14.4-10.6,12.5-19.4c-1.9-8.8-10.6-14.4-19.4-12.5c-8.8,1.9-14.4,10.6-12.5,19.4
		S426.5,410.7,435.3,408.8z"/>
	<path class="st0" d="M634.9,703.3c-8.8,1.9-14.4,10.6-12.5,19.4c1.9,8.8,10.6,14.4,19.4,12.5c8.8-1.9,14.4-10.6,12.5-19.4
		C652.4,707,643.7,701.4,634.9,703.3z"/>
	<path class="st0" d="M783.2,591.1c-8.8,1.9-14.4,10.6-12.5,19.4s10.6,14.4,19.4,12.5c8.8-1.9,14.4-10.6,12.5-19.4
		C800.6,594.8,792,589.2,783.2,591.1z"/>
</g>
</svg>
